<svg width="127" height="119" viewBox="0 0 127 119" fill="none" xmlns="http://www.w3.org/2000/svg">
<path fill-rule="evenodd" clip-rule="evenodd" d="M0 114.113V118.316H27.7376H63.7125H91.4502V114.113L68.0833 0.809339L23.3669 0.641235L0 114.113ZM126.368 0.641235H99.8069V118.316H126.368V0.641235ZM27.6587 75.0414C28.3052 62.7938 37.5727 51.806 53.3058 53.7889L63.3634 38.7886V118.316H23.923L27.6587 75.0414ZM38.3629 70.119C38.3629 73.7116 41.3323 76.6044 45.1159 76.6044C48.7798 76.6044 51.7492 73.7816 51.7492 70.119C51.7492 66.4564 48.8995 63.5403 45.1159 63.5403C41.3323 63.5403 38.3629 66.5264 38.3629 70.119Z" fill="#00434F"/>
</svg>
